<svg xmlns="http://www.w3.org/2000/svg" viewBox="0 0 708.3 274.82"><defs><style>.cls-1,.cls-2{fill:none;}.cls-1,.cls-2,.cls-3,.cls-4{stroke:#1d262d;stroke-width:2px;}.cls-1,.cls-3{stroke-linecap:round;stroke-linejoin:round;}.cls-2,.cls-4{stroke-miterlimit:10;}.cls-3{fill:#fff;}.cls-4{fill:#5c5c58;}</style></defs><g id="Layer_2" data-name="Layer 2"><g id="OBJECTS"><path class="cls-1" d="M697.84,273.82H10.46a6,6,0,0,1-6-6h0a6,6,0,0,1,6-6H697.84a6,6,0,0,1,6,6h0A6,6,0,0,1,697.84,273.82Z"/><circle class="cls-1" cx="631.06" cy="172.34" r="69.39"/><circle class="cls-1" cx="631.06" cy="172.34" r="61.83"/><polyline class="cls-1" points="637.95 103.64 631.06 110.52 624.18 103.64"/><polyline class="cls-1" points="619.93 104.2 615.06 112.62 606.63 107.76"/><polyline class="cls-1" points="602.67 109.4 600.15 118.8 590.75 116.28"/><polyline class="cls-1" points="587.35 118.89 587.35 128.63 577.62 128.63"/><polyline class="cls-1" points="575 132.03 577.52 141.43 568.12 143.95"/><polyline class="cls-1" points="566.48 147.91 571.34 156.34 562.92 161.21"/><polyline class="cls-1" points="562.36 165.46 569.24 172.34 562.36 179.22"/><polyline class="cls-1" points="562.92 183.48 571.34 188.34 566.48 196.77"/><polyline class="cls-1" points="568.12 200.74 577.52 203.26 575 212.66"/><polyline class="cls-1" points="577.62 216.06 587.35 216.06 587.35 225.79"/><polyline class="cls-1" points="590.75 228.41 600.15 225.89 602.67 235.29"/><polyline class="cls-1" points="606.63 236.93 615.06 232.06 619.93 240.49"/><polyline class="cls-1" points="624.18 241.05 631.06 234.17 637.95 241.05"/><polyline class="cls-1" points="642.2 240.49 647.07 232.06 655.49 236.93"/><polyline class="cls-1" points="659.46 235.29 661.98 225.89 671.38 228.41"/><polyline class="cls-1" points="674.78 225.79 674.78 216.06 684.51 216.06"/><polyline class="cls-1" points="687.13 212.66 684.61 203.26 694.01 200.74"/><polyline class="cls-1" points="695.65 196.77 690.78 188.34 699.21 183.48"/><polyline class="cls-1" points="699.77 179.22 692.89 172.34 699.77 165.46"/><polyline class="cls-1" points="699.21 161.21 690.78 156.34 695.65 147.91"/><polyline class="cls-1" points="694.01 143.95 684.61 141.43 687.13 132.03"/><polyline class="cls-1" points="684.51 128.63 674.78 128.63 674.78 118.89"/><polyline class="cls-1" points="671.38 116.28 661.98 118.8 659.46 109.4"/><polyline class="cls-1" points="655.49 107.76 647.07 112.62 642.2 104.2"/><path class="cls-1" d="M634.38,99.43a3.32,3.32,0,1,1-3.32-3.32A3.31,3.31,0,0,1,634.38,99.43Z"/><path class="cls-1" d="M615.4,101.05a3.32,3.32,0,1,1-4.07-2.34A3.33,3.33,0,0,1,615.4,101.05Z"/><path class="cls-1" d="M597.48,107.54a3.32,3.32,0,1,1-4.53-1.22A3.32,3.32,0,0,1,597.48,107.54Z"/><path class="cls-1" d="M581.85,118.44a3.32,3.32,0,1,1-4.69,0A3.31,3.31,0,0,1,581.85,118.44Z"/><path class="cls-1" d="M569.58,133a3.32,3.32,0,1,1-4.54,1.22A3.32,3.32,0,0,1,569.58,133Z"/><path class="cls-1" d="M561.49,150.27a3.32,3.32,0,1,1-4.06,2.34A3.32,3.32,0,0,1,561.49,150.27Z"/><path class="cls-1" d="M558.15,169a3.32,3.32,0,1,1-3.32,3.31A3.32,3.32,0,0,1,558.15,169Z"/><path class="cls-1" d="M559.77,188a3.32,3.32,0,1,1-2.34,4.06A3.33,3.33,0,0,1,559.77,188Z"/><path class="cls-1" d="M566.26,205.93a3.32,3.32,0,1,1-1.22,4.53A3.32,3.32,0,0,1,566.26,205.93Z"/><path class="cls-1" d="M577.16,221.56a3.32,3.32,0,1,1,0,4.69A3.31,3.31,0,0,1,577.16,221.56Z"/><path class="cls-1" d="M591.73,233.83a3.32,3.32,0,1,1,1.22,4.53A3.32,3.32,0,0,1,591.73,233.83Z"/><path class="cls-1" d="M609,241.92a3.32,3.32,0,1,1,2.34,4.06A3.32,3.32,0,0,1,609,241.92Z"/><path class="cls-1" d="M627.75,245.26a3.32,3.32,0,1,1,3.31,3.32A3.32,3.32,0,0,1,627.75,245.26Z"/><path class="cls-1" d="M646.73,243.63a3.32,3.32,0,1,1,4.06,2.35A3.32,3.32,0,0,1,646.73,243.63Z"/><path class="cls-1" d="M664.65,237.15a3.32,3.32,0,1,1,4.53,1.21A3.31,3.31,0,0,1,664.65,237.15Z"/><path class="cls-1" d="M680.28,226.25a3.32,3.32,0,1,1,4.69,0A3.31,3.31,0,0,1,680.28,226.25Z"/><path class="cls-1" d="M692.55,211.67a3.32,3.32,0,1,1,4.53-1.21A3.31,3.31,0,0,1,692.55,211.67Z"/><path class="cls-1" d="M700.64,194.42a3.32,3.32,0,1,1,4.06-2.35A3.32,3.32,0,0,1,700.64,194.42Z"/><path class="cls-1" d="M704,175.66a3.32,3.32,0,1,1,3.32-3.32A3.32,3.32,0,0,1,704,175.66Z"/><path class="cls-1" d="M702.35,156.68a3.32,3.32,0,1,1,2.35-4.07A3.32,3.32,0,0,1,702.35,156.68Z"/><path class="cls-1" d="M695.87,138.76a3.32,3.32,0,1,1,1.21-4.53A3.32,3.32,0,0,1,695.87,138.76Z"/><path class="cls-1" d="M685,123.13a3.32,3.32,0,1,1,0-4.69A3.33,3.33,0,0,1,685,123.13Z"/><path class="cls-1" d="M670.39,110.85a3.31,3.31,0,1,1-1.21-4.53A3.32,3.32,0,0,1,670.39,110.85Z"/><path class="cls-1" d="M653.14,102.77a3.32,3.32,0,1,1-2.35-4.06A3.32,3.32,0,0,1,653.14,102.77Z"/><line class="cls-1" x1="631.06" y1="110.52" x2="631.06" y2="172.34"/><line class="cls-1" x1="615.06" y1="112.62" x2="631.06" y2="172.34"/><line class="cls-1" x1="600.15" y1="118.8" x2="631.06" y2="172.34"/><line class="cls-1" x1="587.35" y1="128.63" x2="631.06" y2="172.34"/><line class="cls-1" x1="577.52" y1="141.43" x2="631.06" y2="172.34"/><line class="cls-1" x1="571.34" y1="156.34" x2="631.06" y2="172.34"/><line class="cls-1" x1="569.24" y1="172.34" x2="631.06" y2="172.34"/><line class="cls-1" x1="571.34" y1="188.35" x2="631.06" y2="172.34"/><line class="cls-1" x1="577.52" y1="203.26" x2="631.06" y2="172.34"/><line class="cls-1" x1="587.35" y1="216.06" x2="631.06" y2="172.34"/><line class="cls-1" x1="600.15" y1="225.89" x2="631.06" y2="172.34"/><line class="cls-1" x1="615.06" y1="232.06" x2="631.06" y2="172.34"/><line class="cls-1" x1="631.06" y1="234.17" x2="631.06" y2="172.34"/><line class="cls-1" x1="647.07" y1="232.06" x2="631.06" y2="172.34"/><line class="cls-1" x1="661.98" y1="225.89" x2="631.06" y2="172.34"/><line class="cls-1" x1="674.78" y1="216.06" x2="631.06" y2="172.34"/><line class="cls-1" x1="684.61" y1="203.26" x2="631.06" y2="172.34"/><line class="cls-1" x1="690.78" y1="188.35" x2="631.06" y2="172.34"/><line class="cls-1" x1="692.89" y1="172.34" x2="631.06" y2="172.34"/><line class="cls-1" x1="690.78" y1="156.34" x2="631.06" y2="172.34"/><line class="cls-1" x1="684.61" y1="141.43" x2="631.06" y2="172.34"/><line class="cls-1" x1="674.78" y1="128.63" x2="631.06" y2="172.34"/><line class="cls-1" x1="661.98" y1="118.8" x2="631.06" y2="172.34"/><line class="cls-1" x1="647.07" y1="112.62" x2="631.06" y2="172.34"/><path class="cls-1" d="M651.3,261.82H610.83L626.92,167a4.21,4.21,0,0,1,4.14-3.5h0a4.2,4.2,0,0,1,4.14,3.5Z"/><path class="cls-2" d="M634,172.34a3,3,0,1,1-3-3A3,3,0,0,1,634,172.34Z"/><rect class="cls-3" x="545.25" y="162.3" width="30.74" height="24.88"/><rect class="cls-3" x="542.39" y="130.22" width="36.45" height="32.08"/><rect class="cls-3" x="545.25" y="120.76" width="30.74" height="9.46"/><polygon class="cls-3" points="575.98 120.75 545.25 120.75 554.9 106.25 566.33 106.25 575.98 120.75"/><rect class="cls-3" x="555.39" y="94.3" width="10.44" height="11.95"/><polygon class="cls-3" points="565.84 94.3 555.39 94.3 558.67 75.97 562.56 75.97 565.84 94.3"/><line class="cls-1" x1="550.32" y1="165.91" x2="550.32" y2="183.23"/><line class="cls-1" x1="555.2" y1="165.91" x2="555.2" y2="183.23"/><line class="cls-1" x1="566.03" y1="165.91" x2="566.03" y2="183.23"/><line class="cls-1" x1="570.91" y1="165.91" x2="570.91" y2="183.23"/><rect class="cls-3" x="545.25" y="187.18" width="30.74" height="24.88"/><line class="cls-1" x1="550.32" y1="190.8" x2="550.32" y2="208.11"/><line class="cls-1" x1="555.2" y1="190.8" x2="555.2" y2="208.11"/><line class="cls-1" x1="566.03" y1="190.8" x2="566.03" y2="208.11"/><line class="cls-1" x1="570.91" y1="190.8" x2="570.91" y2="208.11"/><rect class="cls-3" x="545.25" y="212.06" width="30.74" height="24.88"/><line class="cls-1" x1="550.32" y1="215.68" x2="550.32" y2="232.99"/><line class="cls-1" x1="555.2" y1="215.68" x2="555.2" y2="232.99"/><line class="cls-1" x1="566.03" y1="215.68" x2="566.03" y2="232.99"/><line class="cls-1" x1="570.91" y1="215.68" x2="570.91" y2="232.99"/><rect class="cls-3" x="545.25" y="236.94" width="30.74" height="24.88"/><line class="cls-1" x1="550.32" y1="240.56" x2="550.32" y2="257.88"/><line class="cls-1" x1="555.2" y1="240.56" x2="555.2" y2="257.88"/><line class="cls-1" x1="566.03" y1="240.56" x2="566.03" y2="257.88"/><line class="cls-1" x1="570.91" y1="240.56" x2="570.91" y2="257.88"/><line class="cls-1" x1="560.61" y1="49.5" x2="560.61" y2="75.98"/><circle class="cls-1" cx="560.61" cy="146.26" r="12.76"/><polygon class="cls-3" points="225.72 156.91 224.72 156.91 220.37 178.49 230.07 178.49 225.72 156.91"/><rect class="cls-3" x="214.68" y="186.79" width="21.08" height="58.99"/><path class="cls-3" d="M225.22,173h0a4.92,4.92,0,0,1,4.92,4.92v8.85a0,0,0,0,1,0,0h-9.85a0,0,0,0,1,0,0v-8.85a4.92,4.92,0,0,1,4.92-4.92Z"/><rect class="cls-3" x="210.31" y="245.78" width="29.83" height="16.04"/><rect class="cls-3" x="215.41" y="173.14" width="4.89" height="13.53"/><polygon class="cls-3" points="218.1 162.26 217.6 162.26 215.41 173.14 220.29 173.14 218.1 162.26"/><rect class="cls-3" x="230.14" y="173.14" width="4.89" height="13.53"/><polygon class="cls-3" points="232.84 162.26 232.33 162.26 230.14 173.14 235.03 173.14 232.84 162.26"/><path class="cls-4" d="M220.29,198.89h-2.44v-4.46a1.22,1.22,0,0,1,1.22-1.22h0a1.21,1.21,0,0,1,1.22,1.22Z"/><path class="cls-4" d="M225.22,193.21h0a1.22,1.22,0,0,1,1.22,1.22v4.46a0,0,0,0,1,0,0H224a0,0,0,0,1,0,0v-4.46A1.22,1.22,0,0,1,225.22,193.21Z"/><path class="cls-4" d="M232.59,198.89h-2.45v-4.46a1.22,1.22,0,0,1,1.22-1.22h0a1.22,1.22,0,0,1,1.23,1.22Z"/><path class="cls-4" d="M220.29,207.41h-2.44V203a1.22,1.22,0,0,1,1.22-1.22h0a1.21,1.21,0,0,1,1.22,1.22Z"/><path class="cls-4" d="M225.22,201.73h0a1.22,1.22,0,0,1,1.22,1.22v4.46a0,0,0,0,1,0,0H224a0,0,0,0,1,0,0v-4.46A1.22,1.22,0,0,1,225.22,201.73Z"/><path class="cls-4" d="M232.59,207.41h-2.45V203a1.22,1.22,0,0,1,1.22-1.22h0a1.22,1.22,0,0,1,1.23,1.22Z"/><path class="cls-4" d="M220.29,215.93h-2.44v-4.46a1.22,1.22,0,0,1,1.22-1.22h0a1.21,1.21,0,0,1,1.22,1.22Z"/><path class="cls-4" d="M225.22,210.25h0a1.22,1.22,0,0,1,1.22,1.22v4.46a0,0,0,0,1,0,0H224a0,0,0,0,1,0,0v-4.46A1.22,1.22,0,0,1,225.22,210.25Z"/><path class="cls-4" d="M232.59,215.93h-2.45v-4.46a1.22,1.22,0,0,1,1.22-1.22h0a1.22,1.22,0,0,1,1.23,1.22Z"/><path class="cls-4" d="M220.29,224.45h-2.44V220a1.22,1.22,0,0,1,1.22-1.22h0a1.21,1.21,0,0,1,1.22,1.22Z"/><path class="cls-4" d="M225.22,218.77h0a1.22,1.22,0,0,1,1.22,1.22v4.46a0,0,0,0,1,0,0H224a0,0,0,0,1,0,0V220A1.22,1.22,0,0,1,225.22,218.77Z"/><path class="cls-4" d="M232.59,224.45h-2.45V220a1.22,1.22,0,0,1,1.22-1.22h0a1.22,1.22,0,0,1,1.23,1.22Z"/><path class="cls-4" d="M220.29,233h-2.44v-4.46a1.22,1.22,0,0,1,1.22-1.22h0a1.22,1.22,0,0,1,1.22,1.22Z"/><path class="cls-4" d="M225.22,227.29h0a1.22,1.22,0,0,1,1.22,1.22V233a0,0,0,0,1,0,0H224a0,0,0,0,1,0,0v-4.46A1.22,1.22,0,0,1,225.22,227.29Z"/><path class="cls-4" d="M232.59,233h-2.45v-4.46a1.22,1.22,0,0,1,1.22-1.22h0a1.23,1.23,0,0,1,1.23,1.22Z"/><path class="cls-4" d="M220.29,241.49h-2.44V237a1.22,1.22,0,0,1,1.22-1.22h0a1.22,1.22,0,0,1,1.22,1.22Z"/><path class="cls-4" d="M225.22,235.81h0a1.22,1.22,0,0,1,1.22,1.22v4.46a0,0,0,0,1,0,0H224a0,0,0,0,1,0,0V237A1.22,1.22,0,0,1,225.22,235.81Z"/><path class="cls-4" d="M232.59,241.49h-2.45V237a1.22,1.22,0,0,1,1.22-1.22h0a1.23,1.23,0,0,1,1.23,1.22Z"/><polygon class="cls-3" points="319.37 156.91 318.37 156.91 314.01 178.49 323.72 178.49 319.37 156.91"/><rect class="cls-3" x="308.32" y="186.79" width="21.08" height="58.99"/><path class="cls-3" d="M318.87,173h0a4.93,4.93,0,0,0-4.93,4.92v8.85h9.85v-8.85A4.92,4.92,0,0,0,318.87,173Z"/><rect class="cls-3" x="303.95" y="245.78" width="29.83" height="16.04"/><rect class="cls-3" x="309.05" y="173.14" width="4.89" height="13.53"/><polygon class="cls-3" points="311.75 162.26 311.25 162.26 309.05 173.14 313.94 173.14 311.75 162.26"/><rect class="cls-3" x="323.79" y="173.14" width="4.89" height="13.53"/><polygon class="cls-3" points="326.49 162.26 325.98 162.26 323.79 173.14 328.68 173.14 326.49 162.26"/><path class="cls-4" d="M313.94,198.89H311.5v-4.46a1.21,1.21,0,0,1,1.22-1.22h0a1.22,1.22,0,0,1,1.22,1.22Z"/><path class="cls-4" d="M320.09,198.89h-2.45v-4.46a1.22,1.22,0,0,1,1.23-1.22h0a1.22,1.22,0,0,1,1.22,1.22Z"/><path class="cls-4" d="M326.23,198.89h-2.44v-4.46a1.22,1.22,0,0,1,1.22-1.22h0a1.21,1.21,0,0,1,1.22,1.22Z"/><path class="cls-4" d="M313.94,207.41H311.5V203a1.21,1.21,0,0,1,1.22-1.22h0a1.22,1.22,0,0,1,1.22,1.22Z"/><path class="cls-4" d="M320.09,207.41h-2.45V203a1.22,1.22,0,0,1,1.23-1.22h0a1.22,1.22,0,0,1,1.22,1.22Z"/><path class="cls-4" d="M326.23,207.41h-2.44V203a1.22,1.22,0,0,1,1.22-1.22h0a1.21,1.21,0,0,1,1.22,1.22Z"/><path class="cls-4" d="M313.94,215.93H311.5v-4.46a1.21,1.21,0,0,1,1.22-1.22h0a1.22,1.22,0,0,1,1.22,1.22Z"/><path class="cls-4" d="M320.09,215.93h-2.45v-4.46a1.22,1.22,0,0,1,1.23-1.22h0a1.22,1.22,0,0,1,1.22,1.22Z"/><path class="cls-4" d="M326.23,215.93h-2.44v-4.46a1.22,1.22,0,0,1,1.22-1.22h0a1.21,1.21,0,0,1,1.22,1.22Z"/><path class="cls-4" d="M313.94,224.45H311.5V220a1.21,1.21,0,0,1,1.22-1.22h0a1.22,1.22,0,0,1,1.22,1.22Z"/><path class="cls-4" d="M320.09,224.45h-2.45V220a1.22,1.22,0,0,1,1.23-1.22h0a1.22,1.22,0,0,1,1.22,1.22Z"/><path class="cls-4" d="M326.23,224.45h-2.44V220a1.22,1.22,0,0,1,1.22-1.22h0a1.21,1.21,0,0,1,1.22,1.22Z"/><path class="cls-4" d="M313.94,233H311.5v-4.46a1.22,1.22,0,0,1,1.22-1.22h0a1.22,1.22,0,0,1,1.22,1.22Z"/><path class="cls-4" d="M320.09,233h-2.45v-4.46a1.23,1.23,0,0,1,1.23-1.22h0a1.22,1.22,0,0,1,1.22,1.22Z"/><path class="cls-4" d="M326.23,233h-2.44v-4.46a1.22,1.22,0,0,1,1.22-1.22h0a1.22,1.22,0,0,1,1.22,1.22Z"/><path class="cls-4" d="M313.94,241.49H311.5V237a1.22,1.22,0,0,1,1.22-1.22h0a1.22,1.22,0,0,1,1.22,1.22Z"/><path class="cls-4" d="M320.09,241.49h-2.45V237a1.23,1.23,0,0,1,1.23-1.22h0a1.22,1.22,0,0,1,1.22,1.22Z"/><path class="cls-4" d="M326.23,241.49h-2.44V237a1.22,1.22,0,0,1,1.22-1.22h0a1.22,1.22,0,0,1,1.22,1.22Z"/><rect class="cls-3" x="162.63" y="245.78" width="47.67" height="3.97"/><path class="cls-1" d="M214.68,186.67S201,227.29,162.63,227.29"/><line class="cls-1" x1="166.99" y1="227.29" x2="166.99" y2="245.78"/><line class="cls-1" x1="174.84" y1="225.81" x2="174.84" y2="245.78"/><line class="cls-1" x1="182.69" y1="223.09" x2="182.69" y2="245.78"/><line class="cls-1" x1="190.54" y1="218.67" x2="190.54" y2="245.78"/><line class="cls-1" x1="198.39" y1="212.12" x2="198.39" y2="245.78"/><line class="cls-1" x1="206.24" y1="202.68" x2="206.24" y2="245.78"/><rect class="cls-3" x="333.78" y="245.78" width="47.67" height="3.97" transform="translate(715.23 495.54) rotate(180)"/><path class="cls-1" d="M329.41,186.67s13.72,40.62,52,40.62"/><line class="cls-1" x1="377.09" y1="227.29" x2="377.09" y2="245.78"/><line class="cls-1" x1="369.24" y1="225.81" x2="369.24" y2="245.78"/><line class="cls-1" x1="361.39" y1="223.09" x2="361.39" y2="245.78"/><line class="cls-1" x1="353.54" y1="218.67" x2="353.54" y2="245.78"/><line class="cls-1" x1="345.69" y1="212.12" x2="345.69" y2="245.78"/><line class="cls-1" x1="337.84" y1="202.68" x2="337.84" y2="245.78"/><rect class="cls-3" x="235.76" y="187.09" width="72.57" height="8.96"/><polygon class="cls-3" points="240.13 256.37 266.71 227.79 266.71 223.82 240.13 245.78 240.13 256.37"/><polygon class="cls-3" points="303.95 256.37 277.38 227.79 277.38 223.82 303.95 245.78 303.95 256.37"/><rect class="cls-3" x="438.23" y="201.96" width="32.74" height="59.87"/><rect class="cls-3" x="438.23" y="245.34" width="32.74" height="16.48"/><path class="cls-3" d="M487.34,202h0A16.37,16.37,0,0,0,471,218.33v43.49h32.74V218.33A16.37,16.37,0,0,0,487.34,202Z"/><rect class="cls-3" x="503.71" y="201.96" width="32.74" height="59.87"/><rect class="cls-3" x="438.23" y="201.96" width="32.74" height="12.11"/><rect class="cls-3" x="503.71" y="201.96" width="32.74" height="12.11"/><rect class="cls-3" x="503.71" y="245.34" width="32.74" height="16.48"/><rect class="cls-3" x="435.1" y="191.92" width="104.47" height="10.03"/><rect class="cls-3" x="438.23" y="172.97" width="98.23" height="13.85"/><polygon class="cls-3" points="539.58 191.92 435.1 191.92 429.85 186.83 544.83 186.83 539.58 191.92"/><path class="cls-3" d="M459.84,229.71c0,6-2.35,10.8-5.24,10.8s-5.24-4.84-5.24-10.8,2.35-10.81,5.24-10.81S459.84,223.74,459.84,229.71Z"/><ellipse class="cls-3" cx="520.08" cy="229.71" rx="5.24" ry="10.8"/><path class="cls-3" d="M450.67,179.9a2.66,2.66,0,1,1-2.66-2.66A2.66,2.66,0,0,1,450.67,179.9Z"/><path class="cls-3" d="M461.9,179.9a2.66,2.66,0,1,1-2.65-2.66A2.66,2.66,0,0,1,461.9,179.9Z"/><path class="cls-3" d="M473.14,179.9a2.66,2.66,0,1,1-2.66-2.66A2.66,2.66,0,0,1,473.14,179.9Z"/><path class="cls-3" d="M484.38,179.9a2.66,2.66,0,1,1-2.66-2.66A2.66,2.66,0,0,1,484.38,179.9Z"/><path class="cls-3" d="M495.62,179.9a2.66,2.66,0,1,1-2.66-2.66A2.66,2.66,0,0,1,495.62,179.9Z"/><path class="cls-3" d="M506.85,179.9a2.66,2.66,0,1,1-2.65-2.66A2.66,2.66,0,0,1,506.85,179.9Z"/><path class="cls-3" d="M518.09,179.9a2.66,2.66,0,1,1-2.66-2.66A2.66,2.66,0,0,1,518.09,179.9Z"/><path class="cls-3" d="M529.33,179.9a2.66,2.66,0,1,1-2.66-2.66A2.66,2.66,0,0,1,529.33,179.9Z"/><polygon class="cls-3" points="71.9 197.32 15.59 261.82 128.22 261.82 71.9 197.32"/><polyline class="cls-1" points="86.77 214.34 15.59 261.82 110.26 241.26"/><polyline class="cls-1" points="57.03 214.34 128.22 261.82 33.54 241.26"/><polygon class="cls-3" points="419.35 262.16 363.54 260.5 380.7 140.75 435.62 148.62 419.35 262.16"/><rect class="cls-3" x="389.08" y="119.68" width="41.73" height="25.13" transform="translate(22.91 -56.82) rotate(8.16)"/><path class="cls-4" d="M388.23,158.34l-3-.44.8-5.54a1.53,1.53,0,0,1,1.73-1.3h0a1.53,1.53,0,0,1,1.3,1.73Z"/><path class="cls-4" d="M395.87,159.43l-3-.43.79-5.55a1.54,1.54,0,0,1,1.74-1.3h0a1.54,1.54,0,0,1,1.3,1.74Z"/><path class="cls-4" d="M403.5,160.52l-3-.43.79-5.54a1.54,1.54,0,0,1,1.74-1.3h0a1.53,1.53,0,0,1,1.3,1.73Z"/><path class="cls-4" d="M411.22,161.63l-3-.43.8-5.55a1.53,1.53,0,0,1,1.73-1.3h0a1.54,1.54,0,0,1,1.3,1.74Z"/><path class="cls-4" d="M418.86,162.73l-3-.44.8-5.54a1.53,1.53,0,0,1,1.73-1.3h0a1.53,1.53,0,0,1,1.3,1.73Z"/><path class="cls-4" d="M426.5,163.82l-3-.44.79-5.54a1.54,1.54,0,0,1,1.74-1.3h0a1.54,1.54,0,0,1,1.3,1.74Z"/><path class="cls-4" d="M399.24,135.89l-3-.44.8-5.54a1.53,1.53,0,0,1,1.73-1.3h0a1.53,1.53,0,0,1,1.3,1.73Z"/><path class="cls-4" d="M406.88,137l-3-.43.8-5.55a1.53,1.53,0,0,1,1.73-1.3h0a1.54,1.54,0,0,1,1.3,1.74Z"/><path class="cls-4" d="M414.59,138.09l-3-.44.79-5.54a1.54,1.54,0,0,1,1.74-1.3h0a1.53,1.53,0,0,1,1.3,1.73Z"/><path class="cls-4" d="M422.23,139.18l-3-.43.79-5.55a1.54,1.54,0,0,1,1.74-1.3h0a1.54,1.54,0,0,1,1.3,1.74Z"/><path class="cls-4" d="M386.35,171.41l-3-.43.79-5.54a1.54,1.54,0,0,1,1.74-1.3h0a1.53,1.53,0,0,1,1.3,1.73Z"/><path class="cls-4" d="M394,172.51l-3-.44.8-5.54a1.53,1.53,0,0,1,1.73-1.3h0a1.54,1.54,0,0,1,1.31,1.74Z"/><path class="cls-4" d="M401.63,173.6l-3-.43.8-5.54a1.53,1.53,0,0,1,1.73-1.3h0a1.53,1.53,0,0,1,1.3,1.73Z"/><path class="cls-4" d="M409.35,174.71l-3-.44.79-5.54a1.54,1.54,0,0,1,1.74-1.3h0a1.54,1.54,0,0,1,1.3,1.74Z"/><path class="cls-4" d="M417,175.8l-3-.43.79-5.54a1.54,1.54,0,0,1,1.74-1.3h0a1.53,1.53,0,0,1,1.3,1.73Z"/><path class="cls-4" d="M424.62,176.9l-3-.44.8-5.54a1.53,1.53,0,0,1,1.73-1.3h0a1.54,1.54,0,0,1,1.31,1.74Z"/><path class="cls-4" d="M384.48,184.49l-3-.43.8-5.55a1.53,1.53,0,0,1,1.73-1.3h0a1.54,1.54,0,0,1,1.3,1.74Z"/><path class="cls-4" d="M392.12,185.59l-3-.44.79-5.54a1.54,1.54,0,0,1,1.74-1.3h0a1.53,1.53,0,0,1,1.3,1.73Z"/><path class="cls-4" d="M399.75,186.68l-3-.44.79-5.54a1.54,1.54,0,0,1,1.74-1.3h0a1.54,1.54,0,0,1,1.3,1.74Z"/><path class="cls-4" d="M407.47,187.79l-3-.44.8-5.54a1.53,1.53,0,0,1,1.73-1.3h0a1.54,1.54,0,0,1,1.31,1.73Z"/><path class="cls-4" d="M415.11,188.88l-3-.43.8-5.55a1.53,1.53,0,0,1,1.73-1.3h0a1.54,1.54,0,0,1,1.3,1.74Z"/><path class="cls-4" d="M422.75,190l-3-.44.79-5.54a1.54,1.54,0,0,1,1.74-1.3h0a1.53,1.53,0,0,1,1.3,1.73Z"/><path class="cls-4" d="M382.61,197.57l-3-.44.79-5.54a1.54,1.54,0,0,1,1.74-1.3h0a1.54,1.54,0,0,1,1.3,1.74Z"/><path class="cls-4" d="M390.24,198.66l-3-.43.79-5.54a1.54,1.54,0,0,1,1.74-1.3h0a1.53,1.53,0,0,1,1.3,1.73Z"/><path class="cls-4" d="M397.88,199.76l-3-.44.8-5.54a1.53,1.53,0,0,1,1.73-1.3h0a1.53,1.53,0,0,1,1.3,1.74Z"/><path class="cls-4" d="M405.6,200.86l-3-.43.79-5.54a1.54,1.54,0,0,1,1.74-1.3h0a1.53,1.53,0,0,1,1.3,1.73Z"/><path class="cls-4" d="M413.24,202l-3-.44L411,196a1.54,1.54,0,0,1,1.74-1.3h0a1.54,1.54,0,0,1,1.3,1.74Z"/><path class="cls-4" d="M420.87,203.05l-3-.43.79-5.54a1.54,1.54,0,0,1,1.74-1.3h0a1.53,1.53,0,0,1,1.3,1.73Z"/><path class="cls-4" d="M380.73,210.65l-3-.44.8-5.54a1.53,1.53,0,0,1,1.73-1.3h0a1.52,1.52,0,0,1,1.3,1.73Z"/><path class="cls-4" d="M388.37,211.74l-3-.43.8-5.55a1.53,1.53,0,0,1,1.73-1.3h0a1.54,1.54,0,0,1,1.3,1.74Z"/><path class="cls-4" d="M396,212.84l-3-.44.79-5.54a1.54,1.54,0,0,1,1.74-1.3h0a1.53,1.53,0,0,1,1.3,1.73Z"/><path class="cls-4" d="M403.72,213.94l-3-.43.79-5.55a1.54,1.54,0,0,1,1.74-1.3h0a1.54,1.54,0,0,1,1.3,1.74Z"/><path class="cls-4" d="M411.36,215l-3-.44.8-5.54a1.53,1.53,0,0,1,1.73-1.3h0a1.54,1.54,0,0,1,1.31,1.73Z"/><path class="cls-4" d="M419,216.13l-3-.43.8-5.55a1.53,1.53,0,0,1,1.73-1.3h0a1.54,1.54,0,0,1,1.3,1.74Z"/><path class="cls-4" d="M378.86,223.72l-3-.43.79-5.54a1.54,1.54,0,0,1,1.74-1.3h0a1.53,1.53,0,0,1,1.3,1.73Z"/><path class="cls-4" d="M386.49,224.82l-3-.44.79-5.54a1.54,1.54,0,0,1,1.74-1.3h0a1.54,1.54,0,0,1,1.3,1.74Z"/><path class="cls-4" d="M394.13,225.91l-3-.43.79-5.54a1.54,1.54,0,0,1,1.74-1.3h0a1.53,1.53,0,0,1,1.3,1.73Z"/><path class="cls-4" d="M401.85,227l-3-.44.8-5.54a1.53,1.53,0,0,1,1.73-1.3h0a1.54,1.54,0,0,1,1.3,1.74Z"/><path class="cls-4" d="M409.49,228.11l-3-.43.79-5.54a1.54,1.54,0,0,1,1.74-1.3h0a1.53,1.53,0,0,1,1.3,1.73Z"/><path class="cls-4" d="M417.12,229.21l-3-.44.79-5.54a1.54,1.54,0,0,1,1.74-1.3h0a1.54,1.54,0,0,1,1.3,1.74Z"/><path class="cls-4" d="M377,236.8l-3-.43.79-5.54a1.54,1.54,0,0,1,1.74-1.31h0a1.54,1.54,0,0,1,1.3,1.74Z"/><path class="cls-4" d="M384.62,237.9l-3-.44.8-5.54a1.53,1.53,0,0,1,1.73-1.3h0a1.53,1.53,0,0,1,1.3,1.73Z"/><path class="cls-4" d="M392.26,239l-3-.43L390,233a1.53,1.53,0,0,1,1.73-1.3h0a1.54,1.54,0,0,1,1.3,1.74Z"/><path class="cls-4" d="M400,240.1l-3-.44.79-5.54a1.54,1.54,0,0,1,1.74-1.3h0a1.54,1.54,0,0,1,1.3,1.74Z"/><path class="cls-4" d="M407.61,241.19l-3-.43.79-5.55a1.54,1.54,0,0,1,1.74-1.3h0a1.54,1.54,0,0,1,1.3,1.74Z"/><path class="cls-4" d="M415.25,242.29l-3-.44.8-5.54a1.53,1.53,0,0,1,1.73-1.3h0a1.53,1.53,0,0,1,1.3,1.73Z"/><path class="cls-4" d="M375.11,249.88l-3-.44.8-5.54a1.53,1.53,0,0,1,1.73-1.3h0a1.54,1.54,0,0,1,1.3,1.74Z"/><path class="cls-4" d="M382.75,251l-3-.43.79-5.54a1.54,1.54,0,0,1,1.74-1.3h0a1.53,1.53,0,0,1,1.3,1.73Z"/><path class="cls-4" d="M390.38,252.07l-3-.44.79-5.54a1.54,1.54,0,0,1,1.74-1.3h0a1.54,1.54,0,0,1,1.3,1.74Z"/><path class="cls-4" d="M398.1,253.17l-3-.43.8-5.54a1.53,1.53,0,0,1,1.73-1.3h0a1.53,1.53,0,0,1,1.3,1.73Z"/><path class="cls-4" d="M405.74,254.27l-3-.44.8-5.54a1.53,1.53,0,0,1,1.73-1.3h0a1.54,1.54,0,0,1,1.3,1.74Z"/><path class="cls-4" d="M413.38,255.36l-3-.43.79-5.54a1.54,1.54,0,0,1,1.74-1.3h0a1.53,1.53,0,0,1,1.3,1.73Z"/><path class="cls-3" d="M163.41,239.48H126.53c-3.11,12.6-13.87,22.34-13.87,22.34H128.1a16.88,16.88,0,0,1,33.75,0h15.44S166.52,252.08,163.41,239.48Z"/><rect class="cls-3" x="126.49" y="231.81" width="36.96" height="7.68"/><polygon class="cls-3" points="163.45 231.81 126.49 231.81 124.2 227.21 165.74 227.21 163.45 231.81"/><rect class="cls-3" x="133.04" y="192.7" width="23.87" height="7.68"/><polygon class="cls-3" points="156.91 192.7 133.04 192.7 131.56 188.1 158.39 188.1 156.91 192.7"/><rect class="cls-3" x="138.43" y="102.5" width="13.08" height="7.68"/><polygon class="cls-3" points="151.51 102.5 138.43 102.5 137.62 97.91 152.32 97.91 151.51 102.5"/><polygon class="cls-3" points="155.44 200.2 144.97 200.2 134.5 200.2 130.98 227.21 144.97 227.36 158.96 227.21 155.44 200.2"/><polygon class="cls-3" points="140.86 110.18 135.62 188.1 144.97 188.1 154.33 188.1 149.09 110.18 140.86 110.18"/><polygon class="cls-3" points="148.46 210.59 144.97 210.59 141.48 210.59 140.31 227.27 144.97 227.36 149.64 227.27 148.46 210.59"/><line class="cls-1" x1="144.97" y1="60.67" x2="144.97" y2="97.91"/><path class="cls-1" d="M497.31,75.26H450.22a4.06,4.06,0,0,1-4.06-4.06h0a4.06,4.06,0,0,1,4.06-4.06h16a4.06,4.06,0,1,0,0-8.12h-82.6a4.06,4.06,0,0,0,0,8.12h30.8a4.06,4.06,0,0,1,4.06,4.06h0a4.06,4.06,0,0,1-4.06,4.06H345.68a4.06,4.06,0,0,0-4.06,4.06h0a4.06,4.06,0,0,0,4.06,4.06h40.13a4.06,4.06,0,0,1,3.41,4h0a4.06,4.06,0,0,1-4.06,4.06H369.41a4.06,4.06,0,1,0,0,8.12H479.9a4.06,4.06,0,0,0,0-8.12H458a4.06,4.06,0,0,1-4.06-4.06h0a4,4,0,0,1,3.4-4h40a4.06,4.06,0,0,0,4.06-4.06h0A4.06,4.06,0,0,0,497.31,75.26ZM436.45,87.38h0a4.05,4.05,0,0,1-4.06,4.06H410.71a4.06,4.06,0,0,1-4.06-4.06h0a4.06,4.06,0,0,1,3.41-4h23A4,4,0,0,1,436.45,87.38Z"/><path class="cls-1" d="M5.06,35.79H52.15a4.06,4.06,0,0,1,4.06,4.06h0a4.06,4.06,0,0,1-4.06,4.06h-16a4.07,4.07,0,0,0,0,8.13h82.59a4.07,4.07,0,0,0,0-8.13H87.93a4.06,4.06,0,0,1-4.07-4.06h0a4.07,4.07,0,0,1,4.07-4.06h68.76a4.06,4.06,0,0,0,4.07-4.06h0a4.07,4.07,0,0,0-4.07-4.06H116.56a4,4,0,0,1-3.4-4h0a4.06,4.06,0,0,1,4.06-4.06H133a4.06,4.06,0,1,0,0-8.12H22.47a4.06,4.06,0,1,0,0,8.12h22a4.06,4.06,0,0,1,4.06,4.06h0a4,4,0,0,1-3.4,4h-40A4.06,4.06,0,0,0,1,31.73H1A4.06,4.06,0,0,0,5.06,35.79ZM65.92,23.67h0A4.06,4.06,0,0,1,70,19.61H91.66a4.06,4.06,0,0,1,4.06,4.06h0a4,4,0,0,1-3.4,4h-23A4,4,0,0,1,65.92,23.67Z"/><path class="cls-1" d="M296.69,111.14h-68a4.06,4.06,0,0,1-4.06-4.06h0a4.06,4.06,0,0,1,4.06-4.06h68a4.06,4.06,0,0,1,4.06,4.06h0A4.06,4.06,0,0,1,296.69,111.14Z"/><path class="cls-1" d="M583.43,9.12h-68a4.06,4.06,0,0,1-4.06-4.06h0A4.06,4.06,0,0,1,515.4,1h68a4.06,4.06,0,0,1,4.06,4.06h0A4.06,4.06,0,0,1,583.43,9.12Z"/><path class="cls-1" d="M50.21,133.43h0A7.47,7.47,0,0,0,54.77,138h0a7.47,7.47,0,0,0-4.56,4.56h0A7.47,7.47,0,0,0,45.65,138h0a7.47,7.47,0,0,0,4.56-4.56Z"/><path class="cls-1" d="M277.77,141h0a7.45,7.45,0,0,0,4.55,4.56h0a7.45,7.45,0,0,0-4.55,4.56h0a7.49,7.49,0,0,0-4.56-4.56h0a7.49,7.49,0,0,0,4.56-4.56Z"/><path class="cls-1" d="M670.84,39h0a7.47,7.47,0,0,0,4.56,4.56h0a7.47,7.47,0,0,0-4.56,4.56h0a7.47,7.47,0,0,0-4.56-4.56h0A7.47,7.47,0,0,0,670.84,39Z"/><path class="cls-1" d="M270,35.43a3.67,3.67,0,1,1-3.67-3.67A3.67,3.67,0,0,1,270,35.43Z"/><path class="cls-1" d="M485.39,138.09a3.67,3.67,0,1,1-3.67-3.67A3.66,3.66,0,0,1,485.39,138.09Z"/><path class="cls-1" d="M194.21,112.51a3.67,3.67,0,1,1-3.67-3.66A3.67,3.67,0,0,1,194.21,112.51Z"/></g></g></svg>