<svg xmlns="http://www.w3.org/2000/svg" class="css-ze2te4 css-qd6ojx" viewBox="0 0 180 73.251"><path fill="#fff" d="M180 57.204a5.753 5.753 0 0 1-5.755 5.759h-68.433a5.72 5.72 0 0 1-4.134-1.756L56.512 14.563 9.825 61.277A5.754 5.754 0 0 1 0 57.205c0-1.59.645-3.028 1.684-4.067L52.509 2.283A5.76 5.76 0 0 1 56.581.596c1.622 0 3.088.672 4.133 1.752L73.946 16.02h35.477V0h15.27v16.02h18.525c1.723 0 3.274.762 4.33 1.961l31.028 35.429A5.76 5.76 0 0 1 180 57.204m-139.36-2h12.559V42.636h-12.56zm18.936 0h12.557V42.636H59.576zM40.64 73.185h12.559V60.62h-12.56zm18.936.065h12.557V60.683H59.576z" class="css-1fnw8kq"/></svg>