<svg xmlns="http://www.w3.org/2000/svg" width="324.828" height="319.2" viewBox="0 0 180 176.881"><path fill="#edb317" d="M180 57.204a5.753 5.753 0 0 1-5.755 5.759h-68.433a5.72 5.72 0 0 1-4.134-1.756L56.512 14.563 9.825 61.277A5.754 5.754 0 0 1 0 57.205c0-1.59.645-3.028 1.684-4.067L52.509 2.283A5.76 5.76 0 0 1 56.581.596c1.622 0 3.088.672 4.133 1.752L73.946 16.02h35.477V0h15.27v16.02h18.525c1.723 0 3.274.762 4.33 1.961l31.028 35.429A5.76 5.76 0 0 1 180 57.204m-139.36-2h12.559V42.636h-12.56zm18.936 0h12.557V42.636H59.576zM40.64 73.185h12.559V60.62h-12.56zm18.936.065h12.557V60.683H59.576z"/><path fill="#1f4b43" d="M35.41 132.362c-4.813 0-8.946-2.036-12.216-6.046-.247-.247-.247-.617-.062-.925l3.702-5.923c.123-.185.37-.37.617-.37s.493.061.617.246c1.172 1.296 2.406 2.283 3.64 2.9 1.172.679 2.282.987 3.27.987 1.172 0 1.974-.308 2.59-.987.618-.74.926-1.727.926-3.085v-4.01c-.061 0-.061 0-.061.062V94.234c0-.432.37-.802.802-.802h8.082c.432 0 .802.37.802.802v25.11c0 4.072-1.172 7.28-3.393 9.563-2.283 2.283-5.368 3.455-9.317 3.455m34.981 0c-3.331 0-5.737-.678-8.267-2.036-2.468-1.357-4.442-3.27-5.8-5.8-1.357-2.467-2.035-5.428-2.035-8.822V93.987c0-.432.37-.74.802-.74h8.02c.432 0 .74.308.74.74v21.717c0 2.468.68 4.38 1.975 5.738s2.468 2.036 4.627 2.036 3.27-.679 4.504-1.974c1.234-1.358 1.85-3.332 1.85-5.8V93.987c0-.432.37-.74.803-.74h8.02c.432 0 .802.308.802.74v21.717c0 3.394-.678 6.355-2.036 8.823-1.295 2.53-3.27 4.442-5.737 5.8s-4.936 2.035-8.268 2.035m38.684.37c-2.962 0-5.923-.555-8.761-1.665a23.8 23.8 0 0 1-7.465-4.443.86.86 0 0 1-.185-.925l2.159-7.342c.123-.247.308-.432.555-.432a.7.7 0 0 1 .679.185c3.27 3.085 6.972 5.862 11.599 6.108 1.234.062 2.591.124 3.763-.246 3.64-1.173 2.098-4.874-.617-5.985q-1.387-.555-3.887-1.296c-2.467-.678-4.503-1.419-6.046-2.159-1.666-.74-3.085-1.913-4.318-3.455-1.173-1.604-1.79-3.702-1.79-6.231q0-3.61 1.851-6.293c1.851-2.683 2.962-3.209 5.121-4.134S106.422 93 109.26 93c2.53 0 4.997.37 7.465 1.172 2.406.74 4.566 1.79 6.478 3.023.309.247.432.617.247.987l-2.036 6.91c-.062.247-.247.37-.493.432-.186.062-.432.062-.617-.061-2.777-1.728-5.553-3.826-8.823-4.257-2.16-.309-5.43-.185-6.17 2.406-.925 3.331 3.949 4.195 6.17 4.874q3.702 1.11 6.108 2.22c1.666.803 3.146 2.037 4.319 3.58 1.234 1.603 1.85 3.763 1.85 6.354 0 2.53-.678 4.689-1.974 6.54-1.234 1.85-3.023 3.208-5.244 4.195-2.221.864-4.689 1.357-7.465 1.357m30.848-.37c-.432 0-.74-.37-.74-.802v-29.12h-8.453c-.432 0-.802-.309-.802-.74v-7.096c0-.432.37-.802.802-.802h26.468c.494 0 .802.37.802.802v7.095c0 .432-.308.74-.802.74h-8.452v29.121c0 .432-.37.802-.802.802zM17.684 176.881a.696.696 0 0 1-.684-.684v-31.513c0-.369.316-.684.684-.684h6.84c.368 0 .683.315.683.684v12.942h11.89v-12.942c0-.369.316-.684.684-.684h6.84c.368 0 .684.315.684.684v31.513a.696.696 0 0 1-.684.684h-6.84a.696.696 0 0 1-.684-.684v-11.31h-11.89v11.31a.696.696 0 0 1-.684.684zm53.7 0c-3.157 0-6.05-.736-8.576-2.21-2.578-1.472-4.63-3.577-6.155-6.102-1.473-2.578-2.21-5.524-2.21-8.68 0-3.105.737-5.999 2.21-8.576 1.526-2.578 3.525-4.63 6.103-6.103s5.471-2.21 8.628-2.21c3.104 0 5.997.737 8.575 2.21s4.63 3.525 6.103 6.103c1.526 2.577 2.263 5.471 2.263 8.575 0 3.157-.737 6.05-2.263 8.628-1.473 2.578-3.525 4.63-6.103 6.156-2.578 1.473-5.471 2.21-8.575 2.21m.105-7.576c1.526 0 2.946-.42 4.209-1.21 1.315-.841 2.367-1.946 3.104-3.42.79-1.42 1.157-3.05 1.157-4.787 0-1.683-.368-3.314-1.157-4.735-.737-1.42-1.789-2.525-3.104-3.367a7.85 7.85 0 0 0-4.209-1.21c-1.578 0-2.999.42-4.314 1.21a8.97 8.97 0 0 0-3.21 3.367c-.788 1.473-1.157 3.052-1.157 4.735 0 1.736.369 3.367 1.158 4.788.841 1.42 1.894 2.578 3.209 3.367a7.8 7.8 0 0 0 4.314 1.262m26.132 7.576a.696.696 0 0 1-.684-.684v-31.513c0-.369.316-.684.684-.684h7.576c.263 0 .526.157.631.368l7.892 19.466 7.839-19.466c.105-.21.368-.368.631-.368h7.576c.368 0 .684.315.684.684v31.513a.696.696 0 0 1-.684.684h-6.155a.696.696 0 0 1-.684-.684v-16.94l-6.419 16.31a.71.71 0 0 1-.579.367h-4.419c-.263 0-.526-.157-.631-.368l-6.471-16.31v16.941a.696.696 0 0 1-.684.684zm41.968 0v-31.514c0-1.315.263-1.578.684-1.578h23.043c.368 0 .684.263.684.631v5.946a.696.696 0 0 1-.684.683h-15.573v5.472h9.838c.369 0 .684.316.684.684v5.892a.696.696 0 0 1-.684.684h-9.838v5.63h15.52c.369 0 .684.315.684.684v5.892a.696.696 0 0 1-.684.684h-22.99c-.421 0-.684-.316-.684.21"/></svg>